# xmcd
#
# Track frame offsets:
#	150
#	14188
#	28454
#	37624
#	52571
#	65153
#	78880
#	94505
#	106210
#	117311
#	129953
#	149433
#	168857
#	185891
#
# Disc length: 2609 seconds
#
# Revision: 1
# Processed by: cddbd v1.5.2PL0 Copyright (c) Steve Scherf et al.
# Submitted via: audiograbber 1.83.01
#
DISCID=b70a2f0e
DTITLE=Mariana Ionescu Capitanescu - Pe poteca din padure
DYEAR=1900
DGENRE=Populara
TTITLE0=Pe poteca din padure
TTITLE1=Lasa, vecina, oftatu'!
TTITLE2=Spune, neica, zau!
TTITLE3=Mama, ce saraca-ai fost
TTITLE4=Bun gasit, cu bucurie!
TTITLE5=Fata neichii, Mariuta
TTITLE6=Tot ma-ntreaba inima
TTITLE7=Astazi am mai pus un an
TTITLE8=Nasule
TTITLE9=Fetita mamei frumoasa
TTITLE10=Doamne, n-as mai vrea sa mor
TTITLE11=Inimioara pacatoasa
TTITLE12=Te-am iubit, neica, stii bine
TTITLE13=Mai neicuta, mai Marine
EXTD=CD distribuit cu revista Taifasuri
EXTT0=
EXTT1=
EXTT2=
EXTT3=
EXTT4=
EXTT5=
EXTT6=
EXTT7=
EXTT8=
EXTT9=
EXTT10=
EXTT11=
EXTT12=
EXTT13=
PLAYORDER=
